<?xml version="1.0" encoding="utf-8"?>
<!-- Generator: Adobe Illustrator 23.1.0, SVG Export Plug-In . SVG Version: 6.00 Build 0)  -->
<svg version="1.1"
	 id="Layer_1" xmlns:cc="http://creativecommons.org/ns#" xmlns:dc="http://purl.org/dc/elements/1.1/" xmlns:inkscape="http://www.inkscape.org/namespaces/inkscape" xmlns:rdf="http://www.w3.org/1999/02/22-rdf-syntax-ns#" xmlns:sodipodi="http://sodipodi.sourceforge.net/DTD/sodipodi-0.dtd" xmlns:svg="http://www.w3.org/2000/svg"
	 xmlns="http://www.w3.org/2000/svg" xmlns:xlink="http://www.w3.org/1999/xlink" x="0px" y="0px" viewBox="0 0 5.6 8.4"
	 style="enable-background:new 0 0 5.6 8.4;" xml:space="preserve">
<g transform="translate(0,-952.36218)">
	<path d="M1.2,952.4c-0.1,0-0.1,0.1-0.1,0.1l-1,6.6c0,0.1,0,0.2,0.1,0.2c0,0,0.1,0,0.1,0l1.4-1l0.6,2.4c0,0.1,0.1,0.1,0.2,0.1
		c0,0,0,0,0,0l1.6-0.4c0.1,0,0.1-0.1,0.1-0.2l-0.6-2.4l1.7,0.2c0.1,0,0.2-0.1,0.2-0.2c0,0,0-0.1,0-0.1l-4.2-5.2
		C1.3,952.4,1.2,952.4,1.2,952.4z M1.3,952.9l3.7,4.6l-1.6-0.1c-0.1,0-0.2,0.1-0.2,0.2c0,0,0,0,0,0.1l0.7,2.4l-1.3,0.4L2,957.9
		c0-0.1-0.1-0.1-0.2-0.1c0,0,0,0-0.1,0l-1.3,0.9L1.3,952.9L1.3,952.9z"/>
</g>
</svg>
