<?xml version="1.0" encoding="utf-8"?>
<!-- Generator: Adobe Illustrator 23.1.0, SVG Export Plug-In . SVG Version: 6.00 Build 0)  -->
<svg version="1.1" id="Layer_1" xmlns="http://www.w3.org/2000/svg" xmlns:xlink="http://www.w3.org/1999/xlink" x="0px" y="0px"
	 viewBox="0 0 34.5 17" style="enable-background:new 0 0 34.5 17;" xml:space="preserve">
<path d="M0,4.5l0,8C0,12.8,0.2,13,0.5,13h20v3.5c0,0.2,0.1,0.4,0.3,0.4s0.4,0.1,0.5,0l13-8c0.2-0.1,0.2-0.3,0.2-0.4
	s-0.1-0.3-0.2-0.4l-13-8c-0.1-0.1-0.4-0.1-0.5,0s-0.3,0.3-0.3,0.4V4h-20C0.2,4,0,4.2,0,4.5z M21.5,1.4L33,8.5l-11.5,7.1v-3.1
	c0-0.3-0.2-0.5-0.5-0.5H1V5h20c0.3,0,0.5-0.2,0.5-0.5V1.4z"/>
</svg>
